Rokkitt-Regular.ufo
<glyph name="dollar" format="1">
  <advance width="1147"/>
  <unicode hex="0024"/>
  <outline>
    <contour>
      <point x="563" y="-143" type="line"/>
      <point x="637" y="-143" type="line"/>
      <point x="637" y="1305" type="line"/>
      <point x="563" y="1305" type="line"/>
    </contour>
    <component base="S"/>
  </outline>
</glyph>
<glyph name="parenright" format="1">
  <advance width="522"/>
  <unicode hex="0029"/>
  <outline>
    <contour>
      <point x="91" y="-114" type="line"/>
      <point x="344" y="-28"/>
      <point x="470" y="250"/>
      <point x="470" y="529" type="curve" smooth="yes"/>
      <point x="470" y="807"/>
      <point x="344" y="1086"/>
      <point x="91" y="1174" type="curve"/>
      <point x="89" y="1065" type="line"/>
      <point x="207" y="1016"/>
      <point x="266" y="773"/>
      <point x="266" y="531" type="curve" smooth="yes"/>
      <point x="266" y="288"/>
      <point x="207" y="46"/>
      <point x="89" y="-4" type="curve"/>
    </contour>
  </outline>
</glyph>
<glyph name="asterisk" format="1">
  <advance width="916"/>
  <unicode hex="002A"/>
  <outline>
    <contour>
      <point x="307" y="464" type="line"/>
      <point x="463" y="763" type="line"/>
      <point x="463" y="763"/>
      <point x="619" y="464"/>
      <point x="619" y="464" type="curve"/>
      <point x="739" y="549" type="line"/>
      <point x="739" y="549"/>
      <point x="508" y="790"/>
      <point x="508" y="790" type="curve"/>
      <point x="508" y="790"/>
      <point x="835" y="848"/>
      <point x="835" y="848" type="curve"/>
      <point x="792" y="989" type="line"/>
      <point x="792" y="989"/>
      <point x="485" y="836"/>
      <point x="485" y="836" type="curve"/>
      <point x="485" y="836"/>
      <point x="536" y="1171"/>
      <point x="536" y="1171" type="curve"/>
      <point x="391" y="1171" type="line"/>
      <point x="391" y="1171"/>
      <point x="441" y="836"/>
      <point x="441" y="836" type="curve"/>
      <point x="441" y="836"/>
      <point x="134" y="989"/>
      <point x="134" y="989" type="curve"/>
      <point x="91" y="848" type="line"/>
      <point x="91" y="848"/>
      <point x="418" y="790"/>
      <point x="418" y="790" type="curve"/>
      <point x="418" y="790"/>
      <point x="185" y="549"/>
      <point x="185" y="549" type="curve"/>
    </contour>
  </outline>
</glyph>
<glyph name="hyphen" format="1">
  <advance width="719"/>
  <unicode hex="002D"/>
  <outline>
    <contour>
      <point x="91" y="534" type="line"/>
      <point x="638" y="534" type="line"/>
      <point x="638" y="649" type="line"/>
      <point x="91" y="649" type="line"/>
    </contour>
    <contour>
      <point x="361" y="590" type="move" name="_mid"/>
    </contour>
  </outline>
</glyph>
<glyph name="two" format="1">
  <advance width="1048"/>
  <unicode hex="0032"/>
  <outline>
    <contour>
      <point x="163" y="0" type="line"/>
      <point x="914" y="0" type="line"/>
      <point x="914" y="348" type="line"/>
      <point x="787" y="348" type="line"/>
      <point x="787" y="116" type="line"/>
      <point x="361" y="116" type="line"/>
      <point x="695" y="477" type="line" smooth="yes"/>
      <point x="846" y="640"/>
      <point x="903" y="739"/>
      <point x="903" y="843" type="curve" smooth="yes"/>
      <point x="903" y="1043"/>
      <point x="767" y="1170"/>
      <point x="528" y="1170" type="curve" smooth="yes"/>
      <point x="253" y="1170"/>
      <point x="134" y="1026"/>
      <point x="134" y="832" type="curve" smooth="yes"/>
      <point x="134" y="789"/>
      <point x="139" y="743"/>
      <point x="151" y="695" type="curve"/>
      <point x="291" y="695" type="line"/>
      <point x="281" y="737"/>
      <point x="276" y="776"/>
      <point x="276" y="812" type="curve" smooth="yes"/>
      <point x="276" y="956"/>
      <point x="359" y="1041"/>
      <point x="528" y="1041" type="curve" smooth="yes"/>
      <point x="670" y="1041"/>
      <point x="750" y="967"/>
      <point x="750" y="848" type="curve" smooth="yes"/>
      <point x="750" y="768"/>
      <point x="706" y="695"/>
      <point x="603" y="586" type="curve" smooth="yes"/>
      <point x="162" y="116" type="line"/>
    </contour>
  </outline>
</glyph>
<glyph name="D" format="1">
  <advance width="1351"/>
  <unicode hex="0044"/>
  <outline>
    <contour>
      <point x="326" y="0" type="line"/>
      <point x="661" y="0" type="line" smooth="yes"/>
      <point x="1061" y="0"/>
      <point x="1261" y="199"/>
      <point x="1261" y="596" type="curve" smooth="yes"/>
      <point x="1261" y="963"/>
      <point x="1038" y="1153"/>
      <point x="675" y="1153" type="curve" smooth="yes"/>
      <point x="326" y="1153" type="line"/>
      <point x="326" y="1036" type="line"/>
      <point x="671" y="1036" type="line" smooth="yes"/>
      <point x="959" y="1036"/>
      <point x="1096" y="865"/>
      <point x="1096" y="581" type="curve" smooth="yes"/>
      <point x="1096" y="308"/>
      <point x="962" y="116"/>
      <point x="687" y="116" type="curve" smooth="yes"/>
      <point x="326" y="116" type="line"/>
    </contour>
    <component base="uc_main_stem" xOffset="7"/>
    <contour>
      <point x="362" y="591" type="move" name="mid"/>
    </contour>
    <contour>
      <point x="675.5" y="1152" type="move" name="top"/>
    </contour>
    <contour>
      <point x="675.5" y="0" type="move" name="bot"/>
    </contour>
  </outline>
</glyph>
<glyph name="K" format="1">
  <advance width="1233"/>
  <unicode hex="004B"/>
  <outline>
    <contour>
      <point x="732" y="0" type="line"/>
      <point x="1204" y="0" type="line"/>
      <point x="1204" y="116" type="line"/>
      <point x="1073" y="116" type="line"/>
      <point x="593" y="589" type="line"/>
      <point x="1049" y="1037" type="line"/>
      <point x="1178" y="1037" type="line"/>
      <point x="1178" y="1153" type="line"/>
      <point x="736" y="1153" type="line"/>
      <point x="736" y="1037" type="line"/>
      <point x="863" y="1037" type="line"/>
      <point x="401" y="589" type="line"/>
      <point x="876" y="116" type="line"/>
      <point x="732" y="116" type="line"/>
    </contour>
    <component base="uc_main_stem" xOffset="7"/>
    <contour>
      <point x="653" y="0" type="move" name="bot"/>
    </contour>
    <contour>
      <point x="616.5" y="1152" type="move" name="top"/>
    </contour>
  </outline>
</glyph>
<glyph name="L" format="1">
  <advance width="1084"/>
  <unicode hex="004C"/>
  <outline>
    <contour>
      <point x="341" y="0" type="line"/>
      <point x="1002" y="0" type="line"/>
      <point x="1002" y="452" type="line"/>
      <point x="857" y="452" type="line"/>
      <point x="857" y="116" type="line"/>
      <point x="341" y="116" type="line"/>
    </contour>
    <component base="uc_main_stem" xOffset="7"/>
    <contour>
      <point x="381" y="804" type="move" name="caron.alt"/>
    </contour>
    <contour>
      <point x="542" y="1152" type="move" name="top"/>
    </contour>
    <contour>
      <point x="349" y="712" type="move" name="mid"/>
    </contour>
    <contour>
      <point x="562" y="0" type="move" name="bot"/>
    </contour>
  </outline>
</glyph>
<glyph name="V" format="1">
  <advance width="1305"/>
  <unicode hex="0056"/>
  <outline>
    <contour>
      <point x="579" y="0" type="line"/>
      <point x="733" y="0" type="line"/>
      <point x="1131" y="1037" type="line"/>
      <point x="1277" y="1037" type="line"/>
      <point x="1277" y="1153" type="line"/>
      <point x="832" y="1153" type="line"/>
      <point x="832" y="1037" type="line"/>
      <point x="973" y="1037" type="line"/>
      <point x="661" y="184" type="line"/>
      <point x="344" y="1037" type="line"/>
      <point x="485" y="1037" type="line"/>
      <point x="485" y="1153" type="line"/>
      <point x="30" y="1153" type="line"/>
      <point x="30" y="1037" type="line"/>
      <point x="176" y="1037" type="line"/>
    </contour>
  </outline>
</glyph>
<glyph name="d" format="1">
  <advance width="1059"/>
  <unicode hex="0064"/>
  <outline>
    <component base="lc_bowl_left" xOffset="-56"/>
    <component base="lc_ascender_stem_2" xOffset="503"/>
    <contour>
      <point x="804" y="931" type="move" name="mid"/>
    </contour>
  </outline>
</glyph>
<glyph name="h" format="1">
  <advance width="1078"/>
  <unicode hex="0068"/>
  <outline>
    <component base="lc_ascender_stem" xOffset="-6"/>
    <component base="lc_xheight_curved_stem" xOffset="3"/>
    <contour>
      <point x="303" y="924" type="move" name="mid"/>
    </contour>
    <contour>
      <point x="677" y="1005" type="move" name="top"/>
    </contour>
  </outline>
</glyph>
<glyph name="j" format="1">
  <advance width="543"/>
  <unicode hex="006A"/>
  <outline>
    <contour>
      <point x="38" y="-303" type="line"/>
      <point x="129" y="-303" type="line" smooth="yes"/>
      <point x="350" y="-303"/>
      <point x="412" y="-221"/>
      <point x="412" y="19" type="curve" smooth="yes"/>
      <point x="412" y="804" type="line"/>
      <point x="70" y="804" type="line"/>
      <point x="70" y="688" type="line"/>
      <point x="264" y="688" type="line"/>
      <point x="264" y="-8" type="line" smooth="yes"/>
      <point x="264" y="-113"/>
      <point x="246" y="-179"/>
      <point x="145" y="-179" type="curve" smooth="yes"/>
      <point x="38" y="-179" type="line"/>
    </contour>
    <contour>
      <point x="333" y="979" type="curve" smooth="yes"/>
      <point x="384" y="979"/>
      <point x="425" y="1016"/>
      <point x="425" y="1066" type="curve" smooth="yes"/>
      <point x="425" y="1116"/>
      <point x="384" y="1153"/>
      <point x="333" y="1153" type="curve" smooth="yes"/>
      <point x="282" y="1153"/>
      <point x="241" y="1116"/>
      <point x="241" y="1066" type="curve" smooth="yes"/>
      <point x="241" y="1016"/>
      <point x="282" y="979"/>
    </contour>
  </outline>
</glyph>
<glyph name="m" format="1">
  <advance width="1532.140"/>
  <unicode hex="006D"/>
  <outline>
    <component base="lc_xheight_curved_stem" xOffset="473" xScale="0.98"/>
    <component base="lc_xheight_curved_stem" xOffset="-9" xScale="0.98"/>
    <component base="lc_xheight_stem" xOffset="-47" xScale="0.98"/>
    <contour>
      <point x="828" y="805" type="move" name="top"/>
    </contour>
    <contour>
      <point x="766.07" y="0" type="move" name="bot"/>
    </contour>
  </outline>
</glyph>
<glyph name="r" format="1">
  <advance width="778"/>
  <unicode hex="0072"/>
  <outline>
    <contour>
      <point x="382" y="430" type="line"/>
      <point x="382" y="576"/>
      <point x="450" y="688"/>
      <point x="569" y="688" type="curve" smooth="yes"/>
      <point x="608" y="688"/>
      <point x="660" y="673"/>
      <point x="709" y="647" type="curve"/>
      <point x="736" y="767" type="line"/>
      <point x="681" y="797"/>
      <point x="630" y="812"/>
      <point x="584" y="812" type="curve" smooth="yes"/>
      <point x="479" y="812"/>
      <point x="400" y="735"/>
      <point x="365" y="589" type="curve"/>
    </contour>
    <component base="lc_xheight_stem" xOffset="-47"/>
    <contour>
      <point x="310" y="0" type="move" name="bot"/>
    </contour>
    <contour>
      <point x="356" y="805" type="move" name="top"/>
    </contour>
  </outline>
</glyph>
<glyph name="w" format="1">
  <advance width="1441"/>
  <unicode hex="0077"/>
  <outline>
    <contour>
      <point x="375" y="0" type="line"/>
      <point x="518" y="0" type="line"/>
      <point x="729" y="621" type="line"/>
      <point x="935" y="0" type="line"/>
      <point x="1077" y="0" type="line"/>
      <point x="1311" y="688" type="line"/>
      <point x="1433" y="688" type="line"/>
      <point x="1433" y="804" type="line"/>
      <point x="1057" y="804" type="line"/>
      <point x="1057" y="688" type="line"/>
      <point x="1177" y="688" type="line"/>
      <point x="1010" y="146" type="line"/>
      <point x="819" y="688" type="line"/>
      <point x="924" y="688" type="line"/>
      <point x="924" y="804" type="line"/>
      <point x="526" y="804" type="line"/>
      <point x="526" y="688" type="line"/>
      <point x="631" y="688" type="line"/>
      <point x="444" y="157" type="line"/>
      <point x="277" y="688" type="line"/>
      <point x="387" y="688" type="line"/>
      <point x="387" y="804" type="line"/>
      <point x="8" y="804" type="line"/>
      <point x="8" y="688" type="line"/>
      <point x="137" y="688" type="line"/>
    </contour>
    <contour>
      <point x="728" y="805" type="move" name="top"/>
    </contour>
  </outline>
</glyph>
<glyph name="dieresis" format="1">
  <advance width="572"/>
  <unicode hex="00A8"/>
  <outline>
    <contour>
      <point x="134" y="948" type="curve" smooth="yes"/>
      <point x="191" y="948"/>
      <point x="226" y="990"/>
      <point x="225" y="1036" type="curve"/>
      <point x="225" y="1091"/>
      <point x="183" y="1123"/>
      <point x="134" y="1123" type="curve" smooth="yes"/>
      <point x="85" y="1123"/>
      <point x="42" y="1086"/>
      <point x="43" y="1036" type="curve" smooth="yes"/>
      <point x="43" y="988"/>
      <point x="86" y="948"/>
    </contour>
    <contour>
      <point x="437" y="950" type="curve" smooth="yes"/>
      <point x="494" y="950"/>
      <point x="529" y="992"/>
      <point x="528" y="1038" type="curve"/>
      <point x="528" y="1093"/>
      <point x="486" y="1125"/>
      <point x="437" y="1125" type="curve" smooth="yes"/>
      <point x="388" y="1125"/>
      <point x="345" y="1088"/>
      <point x="346" y="1038" type="curve" smooth="yes"/>
      <point x="346" y="990"/>
      <point x="389" y="950"/>
    </contour>
    <contour>
      <point x="286" y="804" type="move" name="_top"/>
    </contour>
  </outline>
</glyph>
<glyph name="copyright" format="1">
  <advance width="1336"/>
  <unicode hex="00A9"/>
  <outline>
    <contour>
      <point x="658" y="277" type="curve" smooth="yes"/>
      <point x="786" y="277"/>
      <point x="874" y="319"/>
      <point x="927" y="404" type="curve"/>
      <point x="863" y="469" type="line"/>
      <point x="821" y="402"/>
      <point x="755" y="368"/>
      <point x="666" y="368" type="curve" smooth="yes"/>
      <point x="542" y="368"/>
      <point x="484" y="457"/>
      <point x="484" y="580" type="curve" smooth="yes"/>
      <point x="484" y="708"/>
      <point x="542" y="792"/>
      <point x="668" y="792" type="curve" smooth="yes"/>
      <point x="754" y="792"/>
      <point x="807" y="749"/>
      <point x="827" y="664" type="curve"/>
      <point x="921" y="664" type="line"/>
      <point x="921" y="872" type="line"/>
      <point x="825" y="872" type="line"/>
      <point x="827" y="806" type="line"/>
      <point x="804" y="860"/>
      <point x="726" y="882"/>
      <point x="646" y="882" type="curve" smooth="yes"/>
      <point x="491" y="882"/>
      <point x="369" y="745"/>
      <point x="369" y="586" type="curve" smooth="yes"/>
      <point x="369" y="411"/>
      <point x="476" y="277"/>
    </contour>
    <contour>
      <point x="668" y="-18" type="curve" smooth="yes"/>
      <point x="1023" y="-18"/>
      <point x="1268" y="233"/>
      <point x="1268" y="575" type="curve" smooth="yes"/>
      <point x="1268" y="917"/>
      <point x="1024" y="1171"/>
      <point x="668" y="1171" type="curve" smooth="yes"/>
      <point x="312" y="1171"/>
      <point x="68" y="917"/>
      <point x="68" y="575" type="curve" smooth="yes"/>
      <point x="68" y="233"/>
      <point x="313" y="-18"/>
    </contour>
    <contour>
      <point x="666" y="74" type="curve" smooth="yes"/>
      <point x="376" y="74"/>
      <point x="184" y="294"/>
      <point x="184" y="575" type="curve" smooth="yes"/>
      <point x="184" y="858"/>
      <point x="375" y="1077"/>
      <point x="667" y="1077" type="curve" smooth="yes"/>
      <point x="960" y="1077"/>
      <point x="1149" y="857"/>
      <point x="1151" y="575" type="curve" smooth="yes"/>
      <point x="1149" y="294"/>
      <point x="958" y="74"/>
    </contour>
  </outline>
</glyph>
<glyph name="guillemotright" format="1">
  <advance width="1032"/>
  <unicode hex="00BB"/>
  <outline>
    <contour>
      <point x="133" y="164" type="line"/>
      <point x="236" y="164" type="line"/>
      <point x="549" y="553" type="line"/>
      <point x="236" y="942" type="line"/>
      <point x="133" y="942" type="line"/>
      <point x="340" y="553" type="line"/>
    </contour>
    <contour>
      <point x="483" y="164" type="line"/>
      <point x="586" y="164" type="line"/>
      <point x="899" y="553" type="line"/>
      <point x="586" y="942" type="line"/>
      <point x="483" y="942" type="line"/>
      <point x="690" y="553" type="line"/>
    </contour>
  </outline>
</glyph>
<glyph name="onequarter" format="1">
  <advance width="1665"/>
  <unicode hex="00BC"/>
  <outline>
    <contour>
      <point x="1170" y="0" type="line"/>
      <point x="1537" y="0" type="line"/>
      <point x="1537" y="80" type="line"/>
      <point x="1417" y="80" type="line"/>
      <point x="1417" y="254" type="line"/>
      <point x="1570" y="254" type="line"/>
      <point x="1570" y="329" type="line"/>
      <point x="1417" y="329" type="line"/>
      <point x="1417" y="804" type="line"/>
      <point x="1315" y="804" type="line"/>
      <point x="940" y="329" type="line"/>
      <point x="940" y="254" type="line"/>
      <point x="1312" y="254" type="line"/>
      <point x="1312" y="80" type="line"/>
      <point x="1170" y="80" type="line"/>
    </contour>
    <contour>
      <point x="129" y="348" type="line"/>
      <point x="472" y="348" type="line"/>
      <point x="472" y="441" type="line"/>
      <point x="358" y="441" type="line"/>
      <point x="358" y="1152" type="line"/>
      <point x="123" y="1152" type="line"/>
      <point x="123" y="1058" type="line"/>
      <point x="252" y="1058" type="line"/>
      <point x="252" y="441" type="line"/>
      <point x="129" y="441" type="line"/>
    </contour>
    <contour>
      <point x="384" y="0" type="line"/>
      <point x="485" y="0" type="line"/>
      <point x="1259" y="1152" type="line"/>
      <point x="1161" y="1152" type="line"/>
    </contour>
    <contour>
      <point x="1048" y="329" type="line"/>
      <point x="1312" y="678" type="line"/>
      <point x="1312" y="329" type="line"/>
    </contour>
  </outline>
</glyph>
<glyph name="hcircumflex" format="1">
  <advance width="1078"/>
  <unicode hex="0125"/>
  <outline>
    <component base="h"/>
    <component base="circumflex" xOffset="374" yOffset="107"/>
    <contour>
      <point x="674" y="1115" type="move" name="top"/>
    </contour>
  </outline>
</glyph>
<glyph name="florin" format="1">
  <advance width="916"/>
  <unicode hex="0192"/>
  <outline>
    <contour>
      <point x="-54" y="-245" type="line"/>
      <point x="143.625" y="-302.375"/>
      <point x="345.256" y="-166.209"/>
      <point x="401" y="122" type="curve" smooth="yes"/>
      <point x="514" y="698" type="line"/>
      <point x="727" y="698" type="line"/>
      <point x="744" y="782" type="line"/>
      <point x="532" y="782" type="line"/>
      <point x="565" y="954" type="line" smooth="yes"/>
      <point x="585" y="1054"/>
      <point x="607" y="1152"/>
      <point x="705" y="1152" type="curve" smooth="yes"/>
      <point x="757" y="1152"/>
      <point x="783" y="1102"/>
      <point x="783" y="1001" type="curve"/>
      <point x="916" y="1001" type="line"/>
      <point x="916" y="1187"/>
      <point x="814" y="1234"/>
      <point x="698" y="1234" type="curve" smooth="yes"/>
      <point x="517" y="1234"/>
      <point x="433" y="1104"/>
      <point x="400" y="941" type="curve" smooth="yes"/>
      <point x="369" y="782" type="line"/>
      <point x="207" y="782" type="line"/>
      <point x="190" y="698" type="line"/>
      <point x="355" y="698" type="line"/>
      <point x="241" y="123" type="line" smooth="yes"/>
      <point x="206.882" y="-48.7647"/>
      <point x="230.667" y="-214.333"/>
      <point x="-36" y="-161" type="curve"/>
    </contour>
  </outline>
</glyph>
<glyph name="commaturnedabovecomb" format="1">
  <advance width="600"/>
  <unicode hex="0312"/>
  <outline>
    <contour>
      <point x="419" y="1388" type="line"/>
      <point x="269" y="1388"/>
      <point x="197" y="1313"/>
      <point x="198" y="1174" type="curve"/>
      <point x="198" y="985" type="line"/>
      <point x="404" y="985" type="line"/>
      <point x="404" y="1174" type="line"/>
      <point x="298" y="1174" type="line"/>
      <point x="298" y="1251"/>
      <point x="332" y="1305"/>
      <point x="419" y="1323" type="curve"/>
    </contour>
    <contour>
      <point x="309" y="804" type="move" name="_top"/>
    </contour>
  </outline>
</glyph>
<glyph name="uni0326" format="1">
  <advance width="554"/>
  <unicode hex="0326"/>
  <outline>
    <contour>
      <point x="166" y="-515" type="line"/>
      <point x="293" y="-512"/>
      <point x="347" y="-448"/>
      <point x="348" y="-311" type="curve" smooth="yes"/>
      <point x="348" y="-129" type="line"/>
      <point x="166" y="-129" type="line"/>
      <point x="166" y="-311" type="line"/>
      <point x="257" y="-311" type="line"/>
      <point x="257" y="-393"/>
      <point x="233" y="-426"/>
      <point x="166" y="-439" type="curve"/>
    </contour>
    <contour>
      <point x="277" y="0" type="move" name="_bot"/>
    </contour>
  </outline>
</glyph>
<glyph name="mu" format="1">
  <advance width="1005"/>
  <unicode hex="03BC"/>
  <outline>
    <contour>
      <point x="148" y="-368" type="line"/>
      <point x="296" y="-368" type="line"/>
      <point x="296" y="351" type="line"/>
      <point x="148" y="351" type="line"/>
    </contour>
    <component base="u"/>
  </outline>
</glyph>
<glyph name="guilsinglright" format="1">
  <advance width="682"/>
  <unicode hex="203A"/>
  <outline>
    <contour>
      <point x="135" y="164" type="line"/>
      <point x="238" y="164" type="line"/>
      <point x="238" y="164"/>
      <point x="551" y="554"/>
      <point x="551" y="554" type="curve"/>
      <point x="238" y="942" type="line"/>
      <point x="135" y="942" type="line"/>
      <point x="342" y="553" type="line"/>
    </contour>
  </outline>
</glyph>
<glyph name="infinity" format="1">
  <advance width="1448"/>
  <unicode hex="221E"/>
  <outline>
    <contour>
      <point x="393" y="207" type="curve" smooth="yes"/>
      <point x="520" y="207"/>
      <point x="626" y="288"/>
      <point x="711" y="451" type="curve"/>
      <point x="804" y="284"/>
      <point x="920" y="201"/>
      <point x="1059" y="201" type="curve" smooth="yes"/>
      <point x="1258" y="201"/>
      <point x="1376" y="391"/>
      <point x="1376" y="598" type="curve" smooth="yes"/>
      <point x="1376" y="806"/>
      <point x="1260" y="983"/>
      <point x="1061" y="983" type="curve" smooth="yes"/>
      <point x="929" y="983"/>
      <point x="821" y="904"/>
      <point x="737" y="745" type="curve"/>
      <point x="651" y="908"/>
      <point x="536" y="989"/>
      <point x="393" y="989" type="curve" smooth="yes"/>
      <point x="189" y="990"/>
      <point x="72" y="804"/>
      <point x="72" y="592" type="curve" smooth="yes"/>
      <point x="72" y="380"/>
      <point x="190" y="207"/>
    </contour>
    <contour>
      <point x="400" y="330" type="curve" smooth="yes"/>
      <point x="236.888" y="330"/>
      <point x="186" y="434.374"/>
      <point x="186" y="596" type="curve" smooth="yes"/>
      <point x="186" y="730"/>
      <point x="255" y="866"/>
      <point x="382" y="866" type="curve" smooth="yes"/>
      <point x="498" y="866"/>
      <point x="577" y="776"/>
      <point x="651" y="598" type="curve"/>
      <point x="572" y="419"/>
      <point x="488" y="330"/>
    </contour>
    <contour>
      <point x="1066" y="324" type="curve" smooth="yes"/>
      <point x="948" y="324"/>
      <point x="873" y="414"/>
      <point x="797" y="592" type="curve"/>
      <point x="879" y="772"/>
      <point x="954" y="860"/>
      <point x="1066" y="860" type="curve" smooth="yes"/>
      <point x="1191" y="860"/>
      <point x="1264" y="727"/>
      <point x="1264" y="594" type="curve" smooth="yes"/>
      <point x="1264" y="456"/>
      <point x="1196" y="324"/>
    </contour>
  </outline>
</glyph>
<glyph name="integral" format="1">
  <advance width="916"/>
  <unicode hex="222B"/>
  <outline>
    <contour>
      <point x="-54" y="-245" type="line"/>
      <point x="142" y="-303.8"/>
      <point x="340" y="-186"/>
      <point x="401" y="122" type="curve" smooth="yes"/>
      <point x="565" y="954" type="line" smooth="yes"/>
      <point x="584" y="1049"/>
      <point x="614" y="1151"/>
      <point x="723" y="1151" type="curve" smooth="yes"/>
      <point x="753" y="1151"/>
      <point x="790" y="1143"/>
      <point x="834" y="1125" type="curve"/>
      <point x="860" y="1201" type="line"/>
      <point x="806" y="1226"/>
      <point x="756" y="1237"/>
      <point x="709" y="1237" type="curve" smooth="yes"/>
      <point x="547" y="1237"/>
      <point x="431" y="1103"/>
      <point x="400" y="941" type="curve" smooth="yes"/>
      <point x="241" y="123" type="line" smooth="yes"/>
      <point x="197" y="-104"/>
      <point x="164" y="-206"/>
      <point x="-36" y="-161" type="curve"/>
    </contour>
  </outline>
</glyph>
<glyph name="approxequal" format="1">
  <advance width="1149"/>
  <unicode hex="2248"/>
  <outline>
    <contour>
      <point x="793" y="135" type="curve" smooth="yes"/>
      <point x="954" y="135"/>
      <point x="1013" y="304"/>
      <point x="1034" y="493" type="curve"/>
      <point x="911" y="493" type="line"/>
      <point x="898" y="379"/>
      <point x="876" y="256"/>
      <point x="795" y="256" type="curve" smooth="yes"/>
      <point x="671.226" y="256"/>
      <point x="620.588" y="493"/>
      <point x="350" y="493" type="curve" smooth="yes"/>
      <point x="182" y="493"/>
      <point x="130" y="316"/>
      <point x="113" y="135" type="curve"/>
      <point x="233" y="135" type="line"/>
      <point x="244" y="262"/>
      <point x="264" y="372"/>
      <point x="362" y="372" type="curve" smooth="yes"/>
      <point x="476.962" y="372"/>
      <point x="653.848" y="135"/>
    </contour>
    <contour>
      <point x="793" y="571" type="curve" smooth="yes"/>
      <point x="954" y="571"/>
      <point x="1013" y="740"/>
      <point x="1034" y="929" type="curve"/>
      <point x="911" y="929" type="line"/>
      <point x="898" y="815"/>
      <point x="876" y="692"/>
      <point x="795" y="692" type="curve" smooth="yes"/>
      <point x="671.096" y="692"/>
      <point x="612.878" y="929"/>
      <point x="350" y="929" type="curve" smooth="yes"/>
      <point x="182" y="929"/>
      <point x="130" y="752"/>
      <point x="113" y="571" type="curve"/>
      <point x="233" y="571" type="line"/>
      <point x="248" y="730"/>
      <point x="288" y="809"/>
      <point x="353" y="809" type="curve" smooth="yes"/>
      <point x="520.506" y="809"/>
      <point x="660.067" y="571"/>
    </contour>
  </outline>
</glyph>
<glyph name="ffi" format="1">
  <advance width="1716"/>
  <outline>
    <contour>
      <point x="80" y="0" type="line"/>
      <point x="531" y="0" type="line"/>
      <point x="531" y="116" type="line"/>
      <point x="369" y="116" type="line"/>
      <point x="369" y="688" type="line"/>
      <point x="721" y="688" type="line"/>
      <point x="721" y="804" type="line"/>
      <point x="369" y="804" type="line"/>
      <point x="369" y="934" type="line" smooth="yes"/>
      <point x="369" y="1047.56"/>
      <point x="450.667" y="1095.23"/>
      <point x="558.259" y="1094.33" type="curve" smooth="yes"/>
      <point x="653.414" y="1093.54"/>
      <point x="768.848" y="1054.77"/>
      <point x="866" y="990" type="curve"/>
      <point x="919" y="1082" type="line"/>
      <point x="820.028" y="1160.84"/>
      <point x="681.308" y="1205.56"/>
      <point x="553.586" y="1207.24" type="curve" smooth="yes"/>
      <point x="376.753" y="1209.57"/>
      <point x="221" y="1129.38"/>
      <point x="221" y="943" type="curve" smooth="yes"/>
      <point x="221" y="804" type="line"/>
      <point x="92" y="804" type="line"/>
      <point x="92" y="688" type="line"/>
      <point x="221" y="688" type="line"/>
      <point x="221" y="116" type="line"/>
      <point x="80" y="116" type="line"/>
    </contour>
    <component base="fi" xOffset="567"/>
  </outline>
</glyph>
<glyph name="lc_descender_stem" format="1">
  <advance width="1067"/>
  <outline>
    <contour>
      <point x="47" y="-303" type="line"/>
      <point x="512" y="-303" type="line"/>
      <point x="512" y="-179" type="line"/>
      <point x="348" y="-179" type="line"/>
      <point x="347" y="569" type="line"/>
      <point x="332" y="804" type="line"/>
      <point x="28" y="804" type="line"/>
      <point x="28" y="688" type="line"/>
      <point x="200" y="688" type="line"/>
      <point x="200" y="-179" type="line"/>
      <point x="47" y="-179" type="line"/>
    </contour>
  </outline>
</glyph>
